<?xml version="1.0" encoding="utf-8"?>
<!-- Generator: Adobe Illustrator 11.0, SVG Export Plug-In . SVG Version: 6.0.0 Build 78)  -->
<!DOCTYPE svg PUBLIC "-//W3C//DTD SVG 1.0//EN"    "http://www.w3.org/TR/2001/REC-SVG-20010904/DTD/svg10.dtd">
<svg width="500" height="500" viewBox="0 0 500 500" overflow="visible" enable-background="new 0 0 500 500"
	 xml:space="preserve">
		<g id="Layer_1">
			<path stroke="#000000" stroke-width="0.216" stroke-miterlimit="2.4142" d="M4.686,68.717H4.98v-0.959
					c0-0.442,0.295-0.517,0.518-0.517S5.72,67.39,5.72,67.536v1.182h0.368v-1.033c0-0.222,0.147-0.443,0.369-0.443
					c0.296,0,0.296,0.148,0.296,0.369v1.107h0.295v-1.182c0-0.517-0.295-0.589-0.518-0.589c-0.296,0-0.369,0.073-0.517,0.295
					c-0.074-0.074-0.148-0.295-0.443-0.295c-0.369,0-0.517,0.221-0.591,0.295l0,0V67.02H4.686V68.717L4.686,68.717z M8.155,68.42
					H7.786v0.296h0.369V68.42L8.155,68.42z M9.854,68.717v-0.222l0,0c0.074,0.075,0.146,0.37,0.517,0.37
					c0.518,0,0.738-0.591,0.738-1.035c0-0.516-0.221-0.885-0.738-0.885c-0.222,0-0.369,0.073-0.517,0.295l0,0v-0.886H9.559v2.362
					H9.854L9.854,68.717z M10.813,67.906c0,0.369-0.148,0.59-0.443,0.59c-0.222,0-0.517-0.075-0.517-0.516
					c0-0.296,0.073-0.739,0.442-0.739C10.74,67.241,10.813,67.61,10.813,67.906L10.813,67.906z M11.919,67.019h-0.295v1.698h0.295
					V67.019L11.919,67.019z M11.919,66.651v-0.296h-0.295v0.296H11.919L11.919,66.651z M13.988,67.61
					c0-0.369-0.221-0.664-0.665-0.664c-0.589,0-0.886,0.443-0.886,0.959s0.37,0.96,0.813,0.96c0.518,0,0.738-0.445,0.738-0.739
					h-0.296c-0.073,0.294-0.221,0.369-0.442,0.369c-0.37,0-0.442-0.369-0.442-0.59c0-0.37,0.146-0.665,0.516-0.665
					c0.222,0,0.369,0.148,0.369,0.369L13.988,67.61L13.988,67.61z M15.687,68.201c0,0.146-0.148,0.295-0.444,0.295
					c-0.369,0-0.516-0.147-0.516-0.516h1.329c0-0.591-0.297-1.034-0.813-1.034c-0.591,0-0.812,0.443-0.812,0.959
					s0.296,0.96,0.738,0.96c0.295,0,0.369-0.148,0.518-0.222c0.221-0.148,0.295-0.369,0.295-0.443L15.687,68.201L15.687,68.201z
					 M14.727,67.757c0-0.295,0.221-0.517,0.442-0.517c0.369,0,0.518,0.222,0.518,0.517H14.727L14.727,67.757z M16.792,67.98
					c0-0.296,0.074-0.739,0.443-0.739c0.518,0,0.518,0.369,0.518,0.665c0,0.369-0.147,0.59-0.443,0.59
					C17.087,68.496,16.792,68.42,16.792,67.98L16.792,67.98z M16.571,69.456h0.222v-0.885h0.074
					c0.075,0.146,0.221,0.295,0.443,0.295c0.591,0,0.812-0.591,0.812-1.035c0-0.516-0.294-0.885-0.812-0.885
					c-0.294,0-0.368,0.221-0.518,0.295l0,0v-0.222h-0.222V69.456L16.571,69.456z M19.895,67.462c0-0.073-0.075-0.517-0.665-0.517
					c-0.37,0-0.665,0.146-0.665,0.517c0,0.295,0.147,0.443,0.442,0.443l0.297,0.075c0.294,0.074,0.367,0.146,0.367,0.294
					c0,0.221-0.146,0.221-0.442,0.221c-0.37,0-0.443-0.147-0.443-0.295H18.49c0,0.22,0.074,0.665,0.739,0.665
					c0.442,0,0.737-0.295,0.737-0.665c0-0.221-0.147-0.37-0.442-0.443l-0.369-0.073c-0.221-0.074-0.296-0.074-0.296-0.222
					c0-0.222,0.296-0.296,0.37-0.296c0.369,0,0.369,0.223,0.369,0.296H19.895L19.895,67.462z M21.74,68.717v-0.222l0,0
					c0,0.075,0.147,0.37,0.444,0.37c0.589,0,0.812-0.591,0.812-1.035c0-0.516-0.296-0.885-0.739-0.885
					c-0.221,0-0.441,0.073-0.517,0.295l0,0v-0.886h-0.295v2.362H21.74L21.74,68.717z M22.7,67.906c0,0.369-0.146,0.59-0.516,0.59
					c-0.148,0-0.444-0.075-0.444-0.516c0-0.296,0-0.739,0.444-0.739C22.626,67.241,22.7,67.61,22.7,67.906L22.7,67.906z
					 M23.88,67.757c0-0.295,0.147-0.517,0.443-0.517h0.074v-0.295c0,0,0,0-0.074,0c-0.22,0-0.369,0.146-0.517,0.295l0,0v-0.222
					h-0.222v1.698h0.295V67.757L23.88,67.757z M25.063,67.462c0.072-0.073,0.072-0.296,0.441-0.296c0.296,0,0.37,0.148,0.37,0.296
					S25.8,67.684,25.8,67.684l-0.517,0.073c-0.518,0.073-0.518,0.369-0.518,0.518c0,0.296,0.147,0.591,0.518,0.591
					c0.369,0,0.517-0.222,0.591-0.37c0,0.148,0.073,0.296,0.369,0.296c0.074,0,0.074,0,0.074-0.074v-0.222l0,0
					c-0.074,0-0.148,0-0.148,0v-1.033c0-0.517-0.517-0.517-0.665-0.517c-0.369,0-0.664,0.146-0.664,0.517H25.063L25.063,67.462z
					 M25.875,68.126c0,0.222-0.222,0.444-0.517,0.444c-0.223,0-0.37-0.149-0.37-0.296c0-0.294,0.296-0.294,0.37-0.294
					c0.442-0.075,0.517-0.075,0.517-0.075V68.126L25.875,68.126z M28.312,67.61c-0.075-0.369-0.223-0.664-0.739-0.664
					s-0.813,0.443-0.813,0.959s0.296,0.96,0.813,0.96c0.518,0,0.664-0.445,0.739-0.739h-0.37c0,0.294-0.147,0.369-0.369,0.369
					c-0.443,0-0.443-0.369-0.443-0.59c0-0.37,0.074-0.665,0.443-0.665c0.295,0,0.369,0.148,0.369,0.369L28.312,67.61L28.312,67.61z
					 M30.157,67.536c0-0.517-0.295-0.589-0.59-0.589c-0.222,0-0.37,0.146-0.518,0.295l0,0v-0.886h-0.296v2.362h0.296v-0.959
					c0-0.368,0.296-0.517,0.518-0.517c0.295,0,0.369,0.148,0.369,0.369v1.108h0.221V67.536L30.157,67.536z M31.116,67.019h-0.295
					v1.698h0.295V67.019L31.116,67.019z M31.116,66.651v-0.296h-0.295v0.296H31.116L31.116,66.651z M32.077,67.019h-0.295v1.698
					h0.295V67.019L32.077,67.019z M32.077,66.651v-0.296h-0.295v0.296H32.077L32.077,66.651z"/>	
		</g>
	</svg>
